<svg width="56" height="80" viewBox="0 0 56 80" fill="none" xmlns="http://www.w3.org/2000/svg">
<path fill-rule="evenodd" clip-rule="evenodd" d="M14.7751 7.31791C7.75771 11.3431 1.57452 14.9904 1.03481 15.4231C-0.393993 16.5687 -0.333892 18.8982 1.15742 20.1811C3.12873 21.8764 1.93873 22.4021 20.5765 11.6047L27.5165 7.58395L29.792 8.87212C31.0433 9.58051 36.327 12.6284 41.5337 15.6455C47.2489 18.9571 51.4239 21.1307 52.0694 21.1307C53.5219 21.1307 55.1057 19.48 55.1057 17.9658C55.1057 17.2907 54.7123 16.3267 54.2042 15.7561C53.7082 15.1996 47.5046 11.4268 40.4182 7.372L27.5342 0L14.7751 7.31791ZM16.5024 20.3069C10.5865 23.7776 5.58566 26.87 5.38973 27.1793C4.33796 28.8413 5.61171 31.2477 7.54336 31.2477C8.06383 31.2477 12.7729 28.776 18.0082 25.7545L27.527 20.2617L37.2032 25.8034C43.2718 29.2792 47.2501 31.3223 47.874 31.2834C49.0524 31.2101 50.2977 29.8153 50.2977 28.5688C50.2977 27.3003 49.1822 26.428 43.0855 22.9286C40.1105 21.2209 35.391 18.4951 32.5975 16.8712C29.804 15.2472 27.46 13.9362 27.3887 13.9579C27.3174 13.9795 22.4184 16.8367 16.5024 20.3069ZM22.3402 27.8536L19.8256 29.3289L19.9362 49.9039C20.0428 69.7405 20.0748 70.499 20.8245 71.0471C21.8202 71.7751 23.4822 71.7751 24.4778 71.0471C25.2291 70.4978 25.2591 69.7257 25.3657 48.409C25.4262 36.2706 25.3361 26.3483 25.1654 26.3587C24.9947 26.3695 23.7234 27.0423 22.3402 27.8536ZM29.8633 52.5243V78.7825L30.754 79.4059C31.9216 80.2241 33.1781 80.1961 34.2342 79.3286L35.0881 78.6274L34.9799 53.8534L34.8717 29.0793L32.3675 27.6729L29.8633 26.2666V52.5243ZM12.7345 33.4442L10.2303 34.9283V47.6626C10.2303 59.8627 10.2639 60.4304 11.0316 61.1981C11.4724 61.6389 12.2837 61.9995 12.8347 61.9995C13.3856 61.9995 14.1969 61.6389 14.6377 61.1981C15.409 60.4268 15.439 59.8627 15.439 46.1728C15.439 38.3497 15.3942 31.9513 15.3389 31.9545C15.2836 31.9573 14.112 32.6277 12.7345 33.4442ZM39.4795 45.9573V60.0326L40.4631 61.0158C41.004 61.5567 41.8234 61.9995 42.2842 61.9995C42.745 61.9995 43.5643 61.5567 44.1052 61.0158L45.0889 60.0326V47.4855V34.9388L42.5919 33.544C41.2188 32.7767 39.9567 32.0892 39.7872 32.0158C39.6181 31.9421 39.4795 38.2159 39.4795 45.9573Z" fill="black"/>
</svg>
