<svg width="261" height="80" viewBox="0 0 261 80" fill="none" xmlns="http://www.w3.org/2000/svg">
<path fill-rule="evenodd" clip-rule="evenodd" d="M14.7751 7.31791C7.75771 11.3431 1.57452 14.9904 1.03481 15.4231C-0.393993 16.5687 -0.333892 18.8982 1.15742 20.1811C3.12873 21.8764 1.93873 22.4021 20.5765 11.6047L27.5165 7.58395L29.792 8.87212C31.0433 9.58051 36.327 12.6284 41.5337 15.6455C47.2489 18.9571 51.4239 21.1307 52.0694 21.1307C53.5219 21.1307 55.1057 19.48 55.1057 17.9658C55.1057 17.2907 54.7123 16.3267 54.2042 15.7561C53.7082 15.1996 47.5046 11.4268 40.4182 7.372L27.5342 0L14.7751 7.31791ZM16.5024 20.3069C10.5865 23.7776 5.58566 26.87 5.38973 27.1793C4.33796 28.8413 5.61171 31.2477 7.54336 31.2477C8.06383 31.2477 12.7729 28.776 18.0082 25.7545L27.527 20.2617L37.2032 25.8034C43.2718 29.2792 47.2501 31.3223 47.874 31.2834C49.0524 31.2101 50.2977 29.8153 50.2977 28.5688C50.2977 27.3003 49.1822 26.428 43.0855 22.9286C40.1105 21.2209 35.391 18.4951 32.5975 16.8712C29.804 15.2472 27.46 13.9362 27.3887 13.9579C27.3174 13.9795 22.4184 16.8367 16.5024 20.3069ZM22.3402 27.8536L19.8256 29.3289L19.9362 49.9039C20.0428 69.7405 20.0748 70.499 20.8245 71.0471C21.8202 71.7751 23.4822 71.7751 24.4778 71.0471C25.2291 70.4978 25.2591 69.7257 25.3657 48.409C25.4262 36.2706 25.3361 26.3483 25.1654 26.3587C24.9947 26.3695 23.7234 27.0423 22.3402 27.8536ZM29.8633 52.5243V78.7825L30.754 79.4059C31.9216 80.2241 33.1781 80.1961 34.2342 79.3286L35.0881 78.6274L34.9799 53.8534L34.8717 29.0793L32.3675 27.6729L29.8633 26.2666V52.5243ZM12.7345 33.4442L10.2303 34.9283V47.6626C10.2303 59.8627 10.2639 60.4304 11.0316 61.1981C11.4724 61.6389 12.2837 61.9995 12.8347 61.9995C13.3856 61.9995 14.1969 61.6389 14.6377 61.1981C15.409 60.4268 15.439 59.8627 15.439 46.1728C15.439 38.3497 15.3942 31.9513 15.3389 31.9545C15.2836 31.9573 14.112 32.6277 12.7345 33.4442ZM39.4795 45.9573V60.0326L40.4631 61.0158C41.004 61.5567 41.8234 61.9995 42.2842 61.9995C42.745 61.9995 43.5643 61.5567 44.1052 61.0158L45.0889 60.0326V47.4855V34.9388L42.5919 33.544C41.2188 32.7767 39.9567 32.0892 39.7872 32.0158C39.6181 31.9421 39.4795 38.2159 39.4795 45.9573Z" fill="black"/>
<path d="M78.4657 53.5H75.6257V26.7H79.6257L87.2257 43.34L89.6257 49.14H89.8657L92.2657 43.34L99.7857 26.7H103.826V53.5H100.946V34.94L101.066 31.06H100.826L99.1857 34.94L91.4257 51.9H87.9857L80.2257 34.94L78.5857 31.06H78.3457L78.4657 34.94V53.5ZM116.106 53.9C110.946 53.9 108.546 50.34 108.546 45.62V33.74H111.426V45.22C111.426 49.5 113.146 51.38 117.026 51.38C120.666 51.38 123.146 49.46 123.146 44.82V33.74H125.986V53.5H123.386V49.14H123.266C122.466 51.42 120.226 53.9 116.106 53.9ZM138.385 53.9C132.985 53.9 130.025 51.62 130.025 47.02V46.94H132.825V47.42C132.825 50.14 133.945 51.46 138.425 51.46C142.105 51.46 143.065 50.42 143.065 48.42C143.065 46.42 141.825 45.7 138.825 45.14L135.545 44.58C132.345 43.98 130.025 42.5 130.025 39.02C130.025 35.62 132.905 33.34 137.585 33.34C142.105 33.34 145.425 35.66 145.425 40.1V40.3H142.665V39.98C142.665 37.62 141.745 35.82 137.505 35.82C133.905 35.82 132.785 36.98 132.785 38.98C132.785 40.98 133.785 41.66 136.745 42.22L140.105 42.86C143.545 43.5 145.825 45.02 145.825 48.3C145.825 51.82 142.945 53.9 138.385 53.9ZM158.2 53.9C152.12 53.9 148.96 49.62 148.96 43.62C148.96 37.62 152.52 33.34 158.16 33.34C162.92 33.34 166.84 36.22 166.84 42.06C166.84 42.98 166.76 43.86 166.64 44.42H151.68C151.8 48.78 153.52 51.34 158.24 51.34C162.24 51.34 163.84 49.54 163.84 47.14V46.9H166.68V47.18C166.68 50.98 163.24 53.9 158.2 53.9ZM158.08 35.82C153.68 35.82 151.92 38.34 151.68 42.34H164.12C164.28 37.66 161.96 35.82 158.08 35.82ZM180.456 43.06H169.536V40.54H180.456V43.06ZM186.864 53.5H184.024V26.7H186.864V53.5ZM194.632 53.5H191.752V33.74H194.352V37.82H194.472C195.232 35.74 197.472 33.34 201.552 33.34C206.632 33.34 208.952 36.62 208.952 41.38V53.5H206.112V42.02C206.112 37.74 204.712 35.86 200.672 35.86C196.752 35.86 194.632 37.7 194.632 42.1V53.5ZM221.116 53.9C215.556 53.9 212.436 49.86 212.436 43.62C212.436 37.38 215.396 33.34 220.796 33.34C224.596 33.34 227.036 35.34 227.876 37.5V26.7H230.756V53.5H228.196V49.7H228.036C227.156 52.18 224.836 53.9 221.116 53.9ZM215.316 43.62C215.316 49.66 217.676 51.42 221.596 51.42C225.516 51.42 227.876 49.38 227.876 45.34V41.94C227.876 37.86 225.516 35.82 221.596 35.82C217.716 35.82 215.316 37.58 215.316 43.62ZM237.949 31.1H235.109V26.7H237.949V31.1ZM237.949 53.5H235.109V33.5H237.949V53.5ZM247.699 53.9C244.099 53.9 241.379 52.06 241.379 48.74C241.379 45.3 243.939 43.78 248.259 43.18L255.219 42.22V40.78C255.219 37.3 253.739 35.9 250.019 35.9C246.419 35.9 244.739 37.3 244.739 40.46V41.06H241.979V40.74C241.979 36.62 245.139 33.34 250.259 33.34C255.539 33.34 257.939 36.74 257.939 41.14V53.5H255.339V49.86L255.139 49.82C253.979 52.1 251.459 53.9 247.699 53.9ZM244.179 48.54C244.179 50.58 245.459 51.5 248.499 51.5C251.899 51.5 255.219 49.74 255.219 45.06V44.38L248.499 45.34C245.339 45.78 244.179 46.42 244.179 48.54Z" fill="black"/>
</svg>
